                                                                        S      1
,,,8HDrawing1,48HAutoCAD 2021 - 简体中文 (Simplified Chinese),62HAutG      1
odesk Translation Framework DWG producer (atf_dwg_producer),32,38,7,99, G      2
15,,1.,2,2HMM,1,0.08,15H20230404.155012,0.01,10000.,,7Hunknown,11,0,15H2G      3
0230404.150814;                                                         G      4
     408       1                                      15        00010001D      1
     408       0               1       0                               0D      2
     408       2                                      17        00010001D      3
     408       0               1       0                               0D      4
     408       3                                      19        00010001D      5
     408       0               1       0                               0D      6
     408       4                                      21        00010001D      7
     408       0               1       0                               0D      8
     408       5                                      23        00010001D      9
     408       0               1       0                               0D     10
     408       6                                      25        00010001D     11
     408       0               1       0                               0D     12
     408       7                                                00000001D     13
     408       0               1       0                               0D     14
     124       8                                                00000000D     15
     124                       2       0                               0D     16
     124      10                                                00000000D     17
     124                       3       0                               0D     18
     124      13                                                00000000D     19
     124                       3       0                               0D     20
     124      16                                                00000000D     21
     124                       3       0                               0D     22
     124      19                                                00000000D     23
     124                       3       0                               0D     24
     124      22                                                00000000D     25
     124                       3       0                               0D     26
     308      25                                                00010200D     27
     308       0               1       0                               0D     28
     308      26                                                00010200D     29
     308       0               1       0                               0D     30
     186      27                       0                        00000000D     31
     186            -189       1       0                               0D     32
     186      28                       1                        00010000D     33
     186            -187       1       0                               0D     34
     186      29                       0                        00000000D     35
     186            -189       1       0                               0D     36
     514      30                                                00010000D     37
     514                       1       1                               0D     38
     514      31                                                00010000D     39
     514                       1       1                               0D     40
     514      32                                                00010000D     41
     514                       1       1                               0D     42
     510      33                                                00010000D     43
     510            -189       1       1                               0D     44
     510      34                                                00010000D     45
     510            -189       1       1                               0D     46
     510      35                                                00010000D     47
     510            -189       1       1                               0D     48
     510      36                                                00010000D     49
     510            -187       1       1                               0D     50
     510      37                                                00010000D     51
     510            -187       1       1                               0D     52
     510      38                                                00010000D     53
     510            -187       1       1                               0D     54
     510      39                                                00010000D     55
     510            -187       1       1                               0D     56
     510      40                                                00010000D     57
     510            -187       1       1                               0D     58
     510      41                                                00010000D     59
     510            -187       1       1                               0D     60
     510      42                                                00010000D     61
     510            -189       1       1                               0D     62
     510      43                                                00010000D     63
     510            -189       1       1                               0D     64
     510      44                                                00010000D     65
     510            -189       1       1                               0D     66
     508      45                                                00010000D     67
     508                       1       1                               0D     68
     508      46                                                00010000D     69
     508                       1       1                               0D     70
     508      47                                                00010000D     71
     508                       1       1                               0D     72
     508      48                                                00010000D     73
     508                       1       1                               0D     74
     508      49                                                00010000D     75
     508                       1       1                               0D     76
     508      50                                                00010000D     77
     508                       1       1                               0D     78
     508      51                                                00010000D     79
     508                       1       1                               0D     80
     508      52                                                00010000D     81
     508                       1       1                               0D     82
     508      53                                                00010000D     83
     508                       1       1                               0D     84
     508      54                                                00010000D     85
     508                       1       1                               0D     86
     508      55                                                00010000D     87
     508                       1       1                               0D     88
     508      56                                                00010000D     89
     508                       1       1                               0D     90
     126      57                                                00010000D     91
     126       0              12       0                               0D     92
     126      69                                                00010000D     93
     126       0               3       0                               0D     94
     126      72                                                00010000D     95
     126       0              12       0                               0D     96
     126      84                                                00010000D     97
     126       0               3       0                               0D     98
     126      87                                                00010000D     99
     126       0               3       0                               0D    100
     126      90                                                00010000D    101
     126       0               3       0                               0D    102
     126      93                                                00010000D    103
     126       0               2       0                               0D    104
     126      95                                                00010000D    105
     126       0               3       0                               0D    106
     126      98                                                00010000D    107
     126       0               4       0                               0D    108
     126     102                                                00010000D    109
     126       0               3       0                               0D    110
     126     105                                                00010000D    111
     126       0               3       0                               0D    112
     126     108                                                00010000D    113
     126       0               3       0                               0D    114
     126     111                                                00010000D    115
     126       0               3       0                               0D    116
     126     114                                                00010000D    117
     126       0               3       0                               0D    118
     126     117                                                00010000D    119
     126       0               3       0                               0D    120
     126     120                                                00010000D    121
     126       0              12       0                               0D    122
     126     132                                                00010000D    123
     126       0               3       0                               0D    124
     126     135                                                00010000D    125
     126       0              12       0                               0D    126
     128     147                                                00010000D    127
     128       0    -189      20       0                               0D    128
     128     167                                                00010000D    129
     128       0    -189       7       0                               0D    130
     128     174                                                00010000D    131
     128       0    -189       7       0                               0D    132
     128     181                                                00010000D    133
     128       0    -187       5       0                               0D    134
     128     186                                                00010000D    135
     128       0    -187       6       0                               0D    136
     128     192                                                00010000D    137
     128       0    -187       5       0                               0D    138
     128     197                                                00010000D    139
     128       0    -187       6       0                               0D    140
     128     203                                                00010000D    141
     128       0    -187       7       0                               0D    142
     128     210                                                00010000D    143
     128       0    -187       7       0                               0D    144
     128     217                                                00010000D    145
     128       0    -189      20       0                               0D    146
     128     237                                                00010000D    147
     128       0    -189       7       0                               0D    148
     128     244                                                00010000D    149
     128       0    -189       7       0                               0D    150
     502     251                                                00010000D    151
     502                       2       1                               0D    152
     502     253                                                00010000D    153
     502                       5       1                               0D    154
     502     258                                                00010000D    155
     502                       2       1                               0D    156
     504     260                                                00010001D    157
     504                       1       1                               0D    158
     504     261                                                00010001D    159
     504                       4       1                               0D    160
     504     265                                                00010001D    161
     504                       1       1                               0D    162
     406     266                                                00000000D    163
     406                       1      15                               0D    164
     406     267                                                00000000D    165
     406                       1      15                               0D    166
     406     268                                                00000000D    167
     406                       1      15                               0D    168
     406     269                                                00000000D    169
     406                       1      15                               0D    170
     406     270                                                00000000D    171
     406                       1      15                               0D    172
     406     271                                                00000000D    173
     406                       1      15                               0D    174
     406     272                                                00000000D    175
     406                       1      15                               0D    176
     406     273                                                00000000D    177
     406                       1      15                               0D    178
     406     274                                                00000000D    179
     406                       1      15                               0D    180
     406     275                                                00000000D    181
     406                       1      15                               0D    182
     406     276                       1                        00000000D    183
     406            -187       1       3                               0D    184
     406     277                       0                        00000000D    185
     406            -189       1       3                               0D    186
     314     278                                                00000200D    187
     314                       1       0                               0D    188
     314     279                                                00000200D    189
     314                       1       0                               0D    190
408,27,0.,0.,0.,1.,0,1,167;                                            1P      1
408,27,0.,0.,0.,1.,0,1,169;                                            3P      2
408,27,0.,0.,0.,1.,0,1,171;                                            5P      3
408,27,0.,0.,0.,1.,0,1,173;                                            7P      4
408,27,0.,0.,0.,1.,0,1,175;                                            9P      5
408,27,0.,0.,0.,1.,0,1,177;                                           11P      6
408,29,0.,0.,0.,1.,0,1,179;                                           13P      7
124,-2.22044604925031D-16,-1.,0.,2529.15848202577,1.,                 15P      8
-2.22044604925031D-16,0.,1773.04112427484,0.,0.,1.,0.;                15P      9
124,-0.865148021912147,-0.501516600105619,0.,2500.54962048014,        17P     10
0.501516600105619,-0.865148021912147,0.,1822.69352991282,0.,0.,       17P     11
1.,0.;                                                                17P     12
124,-0.867772189074963,0.496962199637,0.,2443.24512098401,            19P     13
-0.496962199637,-0.867772189074963,0.,1822.84413560009,0.,0.,1.,      19P     14
0.;                                                                   19P     15
124,-0.00525629395002714,0.999986185591537,0.,2414.37566701352,       21P     16
-0.999986185591537,-0.00525629395002714,0.,1773.34279246658,0.,       21P     17
0.,1.,0.;                                                             21P     18
124,0.862499951733017,0.506057144263909,0.,2442.72314570529,          23P     19
-0.506057144263909,0.862499951733017,0.,1723.54069616135,0.,0.,       23P     20
1.,0.;                                                                23P     21
124,0.870372380718834,-0.492394068690747,0.,2500.0260619459,          25P     22
0.492394068690747,0.870372380718834,0.,1723.0888832606,0.,0.,1.,      25P     23
0.;                                                                   25P     24
308,0,3H*U0,1,33;                                                     27P     25
308,1,3H*U1,6,1,3,5,7,9,11;                                           29P     26
186,37,1,0,0,1,163;                                                   31P     27
186,39,1,0,0,1,165;                                                   33P     28
186,41,1,0,0,1,181;                                                   35P     29
514,3,43,1,45,1,47,1;                                                 37P     30
514,6,49,1,51,1,53,1,55,1,57,1,59,1;                                  39P     31
514,3,61,1,63,1,65,1;                                                 41P     32
510,127,1,1,67;                                                       43P     33
510,129,1,1,69;                                                       45P     34
510,131,1,1,71;                                                       47P     35
510,133,1,1,73;                                                       49P     36
510,135,1,1,75;                                                       51P     37
510,137,1,1,77;                                                       53P     38
510,139,1,1,79;                                                       55P     39
510,141,1,1,81;                                                       57P     40
510,143,1,1,83;                                                       59P     41
510,145,1,1,85;                                                       61P     42
510,147,1,1,87;                                                       63P     43
510,149,1,1,89;                                                       65P     44
508,4,0,157,1,0,0,0,157,2,1,0,0,157,3,0,0,0,157,2,0,0;                67P     45
508,1,0,157,3,1,0;                                                    69P     46
508,1,0,157,1,1,0;                                                    71P     47
508,4,0,159,1,0,0,0,159,2,1,0,0,159,3,0,0,0,159,4,0,0;                73P     48
508,4,0,159,5,0,0,0,159,4,1,0,0,159,6,0,0,0,159,7,0,0;                75P     49
508,4,0,159,8,0,0,0,159,7,1,0,0,159,9,0,0,0,159,10,0,0;               77P     50
508,4,0,159,11,0,0,0,159,10,1,0,0,159,12,0,0,0,159,2,0,0;             79P     51
508,4,0,159,11,1,0,0,159,1,1,0,0,159,5,1,0,0,159,8,1,0;               81P     52
508,4,0,159,12,1,0,0,159,9,1,0,0,159,6,1,0,0,159,3,1,0;               83P     53
508,4,0,161,1,0,0,0,161,2,1,0,0,161,3,0,0,0,161,2,0,0;                85P     54
508,1,0,161,3,1,0;                                                    87P     55
508,1,0,161,1,1,0;                                                    89P     56
126,8,2,0,1,0,0,-3.14159265358979,-3.14159265358979,                  91P     57
-3.14159265358979,-1.5707963267949,-1.5707963267949,0.,0.,            91P     58
1.5707963267949,1.5707963267949,3.14159265358979,                     91P     59
3.14159265358979,3.14159265358979,1.,0.707106781186541,1.,            91P     60
0.707106781186541,1.,0.707106781186541,1.,0.707106781186541,1.,       91P     61
2529.25854439879,1773.21373823032,70.,2529.25854439879,               91P     62
1715.82193430728,70.,2471.86674047575,1715.82193430728,70.,           91P     63
2414.47493655272,1715.82193430728,70.,2414.47493655272,               91P     64
1773.21373823032,70.,2414.47493655272,1830.60554215336,70.,           91P     65
2471.86674047575,1830.60554215336,70.,2529.25854439879,               91P     66
1830.60554215336,70.,2529.25854439879,1773.21373823032,70.,           91P     67
-3.14159265358979,3.14159265358979,0.,0.,0.;                          91P     68
126,1,1,0,0,1,0,-0.17424090752419,-0.17424090752419,0.,0.,1.,1.,      93P     69
2529.25854439879,1773.21373823032,70.,2529.25854439879,               93P     70
1773.21373823032,80.,-0.17424090752419,0.,0.,0.,0.;                   93P     71
126,8,2,0,1,0,0,-3.14159265358979,-3.14159265358979,                  95P     72
-3.14159265358979,-1.5707963267949,-1.5707963267949,0.,0.,            95P     73
1.5707963267949,1.5707963267949,3.14159265358979,                     95P     74
3.14159265358979,3.14159265358979,1.,0.707106781186541,1.,            95P     75
0.707106781186541,1.,0.707106781186541,1.,0.707106781186541,1.,       95P     76
2529.25854439879,1773.21373823032,80.,2529.25854439879,               95P     77
1830.60554215336,80.,2471.86674047575,1830.60554215336,80.,           95P     78
2414.47493655272,1830.60554215336,80.,2414.47493655272,               95P     79
1773.21373823032,80.,2414.47493655272,1715.82193430728,80.,           95P     80
2471.86674047575,1715.82193430728,80.,2529.25854439879,               95P     81
1715.82193430728,80.,2529.25854439879,1773.21373823032,80.,           95P     82
-3.14159265358979,3.14159265358979,0.,0.,0.;                          95P     83
126,1,1,0,0,1,0,-9.60096087348848,-9.60096087348848,10.,10.,1.,       97P     84
1.,0.,66.9927647965233,0.,0.,47.3918039230348,0.,                     97P     85
-9.60096087348848,10.,0.,0.,0.;                                       97P     86
126,1,1,0,0,1,0,0.,0.,70.,70.,1.,1.,-2.27373675443232D-13,            99P     87
66.9927647965233,0.,-2.27373675443232D-13,66.9927647965233,70.,       99P     88
0.,70.,0.,0.,0.;                                                      99P     89
126,1,1,0,0,1,0,-10.,-10.,9.60096087348848,9.60096087348848,1.,      101P     90
1.,0.,47.3918039230348,70.,0.,66.9927647965233,70.,-10.,             101P     91
9.60096087348848,0.,0.,0.;                                           101P     92
126,1,1,0,0,1,0,0.,0.,70.,70.,1.,1.,0.,47.3918039230348,0.,0.,       103P     93
47.3918039230348,70.,0.,70.,0.,0.,0.;                                103P     94
126,1,1,0,0,1,0,0.,0.,56.4432314366377,56.4432314366377,1.,1.,       105P     95
0.,47.3918039230348,0.,-56.4418208670252,46.9927647965233,0.,0.,     105P     96
56.4432314366377,0.,0.,0.;                                           105P     97
126,1,1,0,0,1,0,-56.4432314366377,-56.4432314366377,                 107P     98
7.105427357601D-15,7.105427357601D-15,1.,1.,-56.4418208670252,       107P     99
46.9927647965233,70.,0.,47.3918039230348,70.,-56.4432314366377,      107P    100
7.105427357601D-15,0.,0.,0.;                                         107P    101
126,1,1,0,0,1,0,0.,0.,70.,70.,1.,1.,-56.4418208670252,               109P    102
46.9927647965233,0.,-56.4418208670252,46.9927647965233,70.,0.,       109P    103
70.,0.,0.,0.;                                                        109P    104
126,1,1,0,0,1,0,0.,0.,20.,20.,1.,1.,-56.4418208670252,               111P    105
46.9927647965233,0.,-56.4418208670252,66.9927647965233,0.,0.,        111P    106
20.,0.,0.,0.;                                                        111P    107
126,1,1,0,0,1,0,-20.,-20.,0.,0.,1.,1.,-56.4418208670252,             113P    108
66.9927647965233,70.,-56.4418208670252,46.9927647965233,70.,         113P    109
-20.,0.,0.,0.,0.;                                                    113P    110
126,1,1,0,0,1,0,0.,0.,70.,70.,1.,1.,-56.4418208670252,               115P    111
66.9927647965233,0.,-56.4418208670252,66.9927647965233,70.,0.,       115P    112
70.,0.,0.,0.;                                                        115P    113
126,1,1,0,0,1,0,0.,0.,56.4418208670249,56.4418208670249,1.,1.,       117P    114
-56.4418208670252,66.9927647965233,0.,-2.27373675443232D-13,         117P    115
66.9927647965233,0.,0.,56.4418208670249,0.,0.,0.;                    117P    116
126,1,1,0,0,1,0,-56.4418208670249,-56.4418208670249,0.,0.,1.,1.,     119P    117
-2.27373675443232D-13,66.9927647965233,70.,-56.4418208670252,        119P    118
66.9927647965233,70.,-56.4418208670249,0.,0.,0.,0.;                  119P    119
126,8,2,0,1,0,0,-3.14159265358979,-3.14159265358979,                 121P    120
-3.14159265358979,-1.5707963267949,-1.5707963267949,0.,0.,           121P    121
1.5707963267949,1.5707963267949,3.14159265358979,                    121P    122
3.14159265358979,3.14159265358979,1.,0.707106781186541,1.,           121P    123
0.707106781186541,1.,0.707106781186541,1.,0.707106781186541,1.,      121P    124
2529.15848202577,1773.04112427484,-10.,2529.15848202577,             121P    125
1715.6493203518,-10.,2471.76667810273,1715.6493203518,-10.,          121P    126
2414.3748741797,1715.6493203518,-10.,2414.3748741797,                121P    127
1773.04112427484,-10.,2414.3748741797,1830.43292819787,-10.,         121P    128
2471.76667810273,1830.43292819787,-10.,2529.15848202577,             121P    129
1830.43292819787,-10.,2529.15848202577,1773.04112427484,-10.,        121P    130
-3.14159265358979,3.14159265358979,0.,0.,0.;                         121P    131
126,1,1,0,0,1,0,-0.17424090752419,-0.17424090752419,0.,0.,1.,1.,     123P    132
2529.15848202577,1773.04112427484,-10.,2529.15848202577,             123P    133
1773.04112427484,0.,-0.17424090752419,0.,0.,0.,0.;                   123P    134
126,8,2,0,1,0,0,-3.14159265358979,-3.14159265358979,                 125P    135
-3.14159265358979,-1.5707963267949,-1.5707963267949,0.,0.,           125P    136
1.5707963267949,1.5707963267949,3.14159265358979,                    125P    137
3.14159265358979,3.14159265358979,1.,0.707106781186541,1.,           125P    138
0.707106781186541,1.,0.707106781186541,1.,0.707106781186541,1.,      125P    139
2529.15848202577,1773.04112427484,0.,2529.15848202577,               125P    140
1830.43292819787,0.,2471.76667810273,1830.43292819787,0.,            125P    141
2414.3748741797,1830.43292819787,0.,2414.3748741797,                 125P    142
1773.04112427484,0.,2414.3748741797,1715.6493203518,0.,              125P    143
2471.76667810273,1715.6493203518,0.,2529.15848202577,                125P    144
1715.6493203518,0.,2529.15848202577,1773.04112427484,0.,             125P    145
-3.14159265358979,3.14159265358979,0.,0.,0.;                         125P    146
128,1,8,1,2,0,1,0,0,1,0.,0.,0.17424090752419,0.17424090752419,       127P    147
-3.14159265358979,-3.14159265358979,-3.14159265358979,               127P    148
-1.5707963267949,-1.5707963267949,0.,0.,1.5707963267949,             127P    149
1.5707963267949,3.14159265358979,3.14159265358979,                   127P    150
3.14159265358979,1.,1.,0.707106781186548,0.707106781186548,1.,       127P    151
1.,0.707106781186548,0.707106781186548,1.,1.,0.707106781186548,      127P    152
0.707106781186548,1.,1.,0.707106781186548,0.707106781186548,1.,      127P    153
1.,2529.25854439879,1773.21373823032,70.,2529.25854439879,           127P    154
1773.21373823032,80.,2529.25854439879,1715.82193430728,70.,          127P    155
2529.25854439879,1715.82193430728,80.,2471.86674047575,              127P    156
1715.82193430728,70.,2471.86674047575,1715.82193430728,80.,          127P    157
2414.47493655272,1715.82193430728,70.,2414.47493655272,              127P    158
1715.82193430728,80.,2414.47493655272,1773.21373823032,70.,          127P    159
2414.47493655272,1773.21373823032,80.,2414.47493655272,              127P    160
1830.60554215336,70.,2414.47493655272,1830.60554215336,80.,          127P    161
2471.86674047575,1830.60554215336,70.,2471.86674047575,              127P    162
1830.60554215336,80.,2529.25854439879,1830.60554215336,70.,          127P    163
2529.25854439879,1830.60554215336,80.,2529.25854439879,              127P    164
1773.21373823032,70.,2529.25854439879,1773.21373823032,80.,0.,       127P    165
0.17424090752419,-3.14159265358979,3.14159265358979;                 127P    166
128,1,1,1,1,0,0,1,0,0,-57.3928039230348,-57.3928039230348,           129P    167
57.3928039230357,57.3928039230357,-57.392803923035,                  129P    168
-57.392803923035,57.3928039230355,57.3928039230355,1.,1.,1.,1.,      129P    169
2414.47393655272,1715.82093430728,80.,2529.25954439879,              129P    170
1715.82093430728,80.,2414.47393655272,1830.60654215336,80.,          129P    171
2529.25954439879,1830.60654215336,80.,-57.3928039230348,             129P    172
57.3928039230357,-57.392803923035,57.3928039230355;                  129P    173
128,1,1,1,1,0,0,1,0,0,-57.3928039230348,-57.3928039230348,           131P    174
57.3928039230357,57.3928039230357,-57.392803923035,                  131P    175
-57.392803923035,57.3928039230355,57.3928039230355,1.,1.,1.,1.,      131P    176
2529.25954439879,1715.82093430728,70.,2414.47393655272,              131P    177
1715.82093430728,70.,2529.25954439879,1830.60654215336,70.,          131P    178
2414.47393655272,1830.60654215336,70.,-57.3928039230348,             131P    179
57.3928039230357,-57.392803923035,57.3928039230355;                  131P    180
128,1,1,1,1,0,0,1,0,0,-0.001,-0.001,19.6019608734885,                133P    181
19.6019608734885,-0.001,-0.001,70.001,70.001,1.,1.,1.,1.,0.,         133P    182
47.3908039230346,-0.001,0.,66.9937647965235,-0.001,0.,               133P    183
47.3908039230346,70.001,0.,66.9937647965235,70.001,-0.001,           133P    184
19.6019608734885,-0.001,70.001;                                      133P    185
128,1,1,1,1,0,0,1,0,0,-0.001,-0.001,56.4442314366377,                135P    186
56.4442314366377,-0.001,-0.001,70.001,70.001,1.,1.,1.,1.,            135P    187
-56.4428208420343,46.9927577267804,-0.001,0.000999975009108311,      135P    188
47.3918109927777,-0.001,-56.4428208420343,46.9927577267804,          135P    189
70.001,0.000999975009335685,47.3918109927777,70.001,-0.001,          135P    190
56.4442314366377,-0.001,70.001;                                      135P    191
128,1,1,1,1,0,0,1,0,0,-0.001,-0.001,20.001,20.001,-0.001,-0.001,     137P    192
70.001,70.001,1.,1.,1.,1.,-56.4418208670252,66.9937647965235,        137P    193
-0.001,-56.4418208670252,46.9917647965231,-0.001,                    137P    194
-56.4418208670252,66.9937647965235,70.001,-56.4418208670252,         137P    195
46.9917647965231,70.001,-0.001,20.001,-0.001,70.001;                 137P    196
128,1,1,1,1,0,0,1,0,0,-0.001,-0.001,56.4428208670249,                139P    197
56.4428208670249,-0.001,-0.001,70.001,70.001,1.,1.,1.,1.,            139P    198
0.000999999999748979,66.9927647965233,-0.001,-56.4428208670251,      139P    199
66.9927647965233,-0.001,0.000999999999748979,66.9927647965233,       139P    200
70.001,-56.4428208670251,66.9927647965233,70.001,-0.001,             139P    201
56.4428208670249,-0.001,70.001;                                      139P    202
128,1,1,1,1,0,0,1,0,0,-9.9015928607753,-9.9015928607753,             141P    203
10.1004071392247,10.1004071392247,-28.1480594145626,                 141P    204
-28.1480594145626,28.2957614524626,28.2957614524626,1.,1.,1.,1.,     141P    205
-56.4428208670251,46.9917647965231,0.,-56.4428208670251,             141P    206
66.9937647965235,0.,0.00100000000020373,46.9917647965231,0.,         141P    207
0.000999999999976353,66.9937647965235,0.,-9.9015928607753,           141P    208
10.1004071392247,-28.1480594145626,28.2957614524626;                 141P    209
128,1,1,1,1,0,0,1,0,0,-9.9015928607753,-9.9015928607753,             143P    210
10.1004071392247,10.1004071392247,-28.1480594145626,                 143P    211
-28.1480594145626,28.2957614524626,28.2957614524626,1.,1.,1.,1.,     143P    212
-56.4428208670251,66.9937647965235,70.,-56.4428208670251,            143P    213
46.9917647965231,70.,0.000999999999976353,66.9937647965235,70.,      143P    214
0.00100000000020373,46.9917647965231,70.,-9.9015928607753,           143P    215
10.1004071392247,-28.1480594145626,28.2957614524626;                 143P    216
128,1,8,1,2,0,1,0,0,1,0.,0.,0.17424090752419,0.17424090752419,       145P    217
-3.14159265358979,-3.14159265358979,-3.14159265358979,               145P    218
-1.5707963267949,-1.5707963267949,0.,0.,1.5707963267949,             145P    219
1.5707963267949,3.14159265358979,3.14159265358979,                   145P    220
3.14159265358979,1.,1.,0.707106781186548,0.707106781186548,1.,       145P    221
1.,0.707106781186548,0.707106781186548,1.,1.,0.707106781186548,      145P    222
0.707106781186548,1.,1.,0.707106781186548,0.707106781186548,1.,      145P    223
1.,2529.15848202577,1773.04112427484,-10.,2529.15848202577,          145P    224
1773.04112427484,0.,2529.15848202577,1715.6493203518,-10.,           145P    225
2529.15848202577,1715.6493203518,0.,2471.76667810273,                145P    226
1715.6493203518,-10.,2471.76667810273,1715.6493203518,0.,            145P    227
2414.3748741797,1715.6493203518,-10.,2414.3748741797,                145P    228
1715.6493203518,0.,2414.3748741797,1773.04112427484,-10.,            145P    229
2414.3748741797,1773.04112427484,0.,2414.3748741797,                 145P    230
1830.43292819787,-10.,2414.3748741797,1830.43292819787,0.,           145P    231
2471.76667810273,1830.43292819787,-10.,2471.76667810273,             145P    232
1830.43292819787,0.,2529.15848202577,1830.43292819787,-10.,          145P    233
2529.15848202577,1830.43292819787,0.,2529.15848202577,               145P    234
1773.04112427484,-10.,2529.15848202577,1773.04112427484,0.,0.,       145P    235
0.17424090752419,-3.14159265358979,3.14159265358979;                 145P    236
128,1,1,1,1,0,0,1,0,0,-57.3928039230348,-57.3928039230348,           147P    237
57.3928039230357,57.3928039230357,-57.392803923035,                  147P    238
-57.392803923035,57.3928039230355,57.3928039230355,1.,1.,1.,1.,      147P    239
2414.3738741797,1715.6483203518,0.,2529.15948202577,                 147P    240
1715.6483203518,0.,2414.3738741797,1830.43392819787,0.,              147P    241
2529.15948202577,1830.43392819787,0.,-57.3928039230348,              147P    242
57.3928039230357,-57.392803923035,57.3928039230355;                  147P    243
128,1,1,1,1,0,0,1,0,0,-57.3928039230348,-57.3928039230348,           149P    244
57.3928039230357,57.3928039230357,-57.392803923035,                  149P    245
-57.392803923035,57.3928039230355,57.3928039230355,1.,1.,1.,1.,      149P    246
2529.15948202577,1715.6483203518,-10.,2414.3738741797,               149P    247
1715.6483203518,-10.,2529.15948202577,1830.43392819787,-10.,         149P    248
2414.3738741797,1830.43392819787,-10.,-57.3928039230348,             149P    249
57.3928039230357,-57.392803923035,57.3928039230355;                  149P    250
502,2,2529.25854439879,1773.21373823032,70.,2529.25854439879,        151P    251
1773.21373823032,80.;                                                151P    252
502,8,-2.27373675443232D-13,66.9927647965233,0.,0.,                  153P    253
47.3918039230348,0.,-2.27373675443232D-13,66.9927647965233,70.,      153P    254
0.,47.3918039230348,70.,-56.4418208670252,46.9927647965233,0.,       153P    255
-56.4418208670252,46.9927647965233,70.,-56.4418208670252,            153P    256
66.9927647965233,0.,-56.4418208670252,66.9927647965233,70.;          153P    257
502,2,2529.15848202577,1773.04112427484,-10.,2529.15848202577,       155P    258
1773.04112427484,0.;                                                 155P    259
504,3,91,151,1,151,1,93,151,1,151,2,95,151,2,151,2;                  157P    260
504,12,97,153,1,153,2,99,153,1,153,3,101,153,4,153,3,103,153,2,      159P    261
153,4,105,153,2,153,5,107,153,6,153,4,109,153,5,153,6,111,153,5,     159P    262
153,7,113,153,8,153,6,115,153,7,153,8,117,153,7,153,1,119,153,3,     159P    263
153,8;                                                               159P    264
504,3,121,155,1,155,1,123,155,1,155,2,125,155,2,155,2;               161P    265
406,1,2H65;                                                          163P    266
406,1,2H6F;                                                          165P    267
406,1,2H6C;                                                          167P    268
406,1,2H77;                                                          169P    269
406,1,2H78;                                                          171P    270
406,1,2H79;                                                          173P    271
406,1,2H7A;                                                          175P    272
406,1,2H7B;                                                          177P    273
406,1,2H69;                                                          179P    274
406,1,2H7D;                                                          181P    275
406,2,0,9H长方形;                                                 183P    276
406,2,0,1H0;                                                         185P    277
314,25.0980392156863,100.,0.,;                                       187P    278
314,100.,0.,0.,;                                                     189P    279
S      1G      4D    190P    279                                        T      1
